<?xml version="1.0" encoding="UTF-8"?>
<svg id="Layer_2" data-name="Layer 2" xmlns="http://www.w3.org/2000/svg" viewBox="0 0 2000 2000">
  <defs>
    <style>
      .cls-1 {
        fill: #112a38;
      }

      .cls-2 {
        fill: #e55413;
      }
    </style>
  </defs>
  <g>
    <path class="cls-1" d="M131.9,961.24v-58.44c0-5.12,5.03-8.78,9.91-7.21,18.14,5.83,31.71,8.73,40.7,8.73,9.64,0,14.46-3.67,14.46-11.02,0-3.21-1.72-6.31-5.16-9.29-3.45-2.98-8.84-6.77-16.18-11.36-10.1-6.89-18.48-13.13-25.13-18.76-6.66-5.62-12.45-12.79-17.38-21.52-4.94-8.72-7.4-18.93-7.4-30.63,0-26.39,8.26-46.47,24.79-60.24,16.52-13.77,39.01-20.65,67.47-20.65,12.69,0,24.88,1.63,36.55,4.89,3.25.91,5.45,3.97,5.45,7.34v53.24c0,5.64-5.87,9.16-10.98,6.78-3.83-1.78-7.63-3.27-11.4-4.45-7.35-2.29-13.77-3.44-19.28-3.44-4.82,0-8.61.92-11.36,2.75-2.75,1.84-4.14,4.59-4.14,8.26,0,2.98,1.61,6.08,4.82,9.29,3.21,3.22,8.38,7.46,15.5,12.74,10.1,7.58,18.53,14.58,25.3,21,6.76,6.43,12.73,14.52,17.9,24.27,5.17,9.76,7.75,20.83,7.75,33.22,0,25.93-8.21,45.27-24.62,58-16.41,12.74-38.73,19.1-66.96,19.1-14.25,0-29.13-1.72-44.65-5.15-3.47-.77-5.96-3.92-5.96-7.47Z"/>
    <path class="cls-1" d="M324.7,726.7h128.02c4.19,0,7.59,3.4,7.59,7.59v52.63c0,4.19-3.4,7.59-7.59,7.59h-52.98c-4.19,0-7.59,3.4-7.59,7.59v7.88c0,4.19,3.4,7.59,7.59,7.59h51.6c4.19,0,7.59,3.4,7.59,7.59v43.34c0,4.19-3.4,7.59-7.59,7.59h-51.6c-4.19,0-7.59,3.4-7.59,7.59v8.57c0,4.19,3.4,7.59,7.59,7.59h56.42c4.19,0,7.59,3.4,7.59,7.59v52.63c0,4.19-3.4,7.59-7.59,7.59h-131.47c-4.19,0-7.59-3.4-7.59-7.59v-225.78c0-4.19,3.4-7.59,7.59-7.59Z"/>
    <path class="cls-1" d="M575.46,726.7h91.54c3.38,0,6.35,2.23,7.29,5.48l65.48,225.78c1.41,4.86-2.23,9.7-7.29,9.7h-63.12c-3.5,0-6.54-2.39-7.37-5.78l-6.12-24.93c-.83-3.39-3.88-5.78-7.37-5.78h-55.61c-3.47,0-6.5,2.35-7.36,5.72l-6.39,25.06c-.86,3.36-3.89,5.72-7.36,5.72h-62.79c-5.07,0-8.71-4.87-7.28-9.73l66.45-225.78c.95-3.23,3.92-5.45,7.28-5.45ZM629.95,872.31c4.93,0,8.56-4.63,7.37-9.42l-16.24-65.28h-.34l-16.54,65.24c-1.22,4.8,2.41,9.46,7.36,9.46h18.4Z"/>
    <path class="cls-1" d="M787.01,726.7h55.87c2.51,0,4.85,1.24,6.27,3.31l61.68,90.33c4.21,6.17,13.86,3.19,13.86-4.28v-81.77c0-4.19,3.4-7.59,7.59-7.59h59.86c4.19,0,7.59,3.4,7.59,7.59v225.78c0,4.19-3.4,7.59-7.59,7.59h-53.59c-2.44,0-4.73-1.17-6.16-3.15l-64.19-88.98c-4.31-5.97-13.75-2.93-13.75,4.44v80.1c0,4.19-3.4,7.59-7.59,7.59h-59.87c-4.19,0-7.59-3.4-7.59-7.59v-225.78c0-4.19,3.4-7.59,7.59-7.59Z"/>
    <path class="cls-1" d="M1113.16,726.7h91.54c3.38,0,6.35,2.23,7.29,5.48l65.48,225.78c1.41,4.86-2.23,9.7-7.29,9.7h-63.12c-3.5,0-6.54-2.39-7.37-5.78l-6.12-24.93c-.83-3.39-3.88-5.78-7.37-5.78h-55.61c-3.47,0-6.5,2.35-7.36,5.72l-6.39,25.06c-.86,3.36-3.89,5.72-7.36,5.72h-62.79c-5.07,0-8.71-4.87-7.28-9.73l66.45-225.78c.95-3.23,3.92-5.45,7.28-5.45ZM1167.65,872.31c4.93,0,8.56-4.63,7.37-9.42l-16.24-65.28h-.34l-16.54,65.24c-1.22,4.8,2.41,9.46,7.36,9.46h18.4Z"/>
    <path class="cls-1" d="M1385.79,726.7h91.54c3.38,0,6.35,2.23,7.29,5.48l65.48,225.78c1.41,4.86-2.23,9.7-7.29,9.7h-63.12c-3.5,0-6.54-2.39-7.37-5.78l-6.12-24.93c-.83-3.39-3.88-5.78-7.37-5.78h-55.61c-3.47,0-6.5,2.35-7.36,5.72l-6.39,25.06c-.86,3.36-3.89,5.72-7.36,5.72h-62.79c-5.07,0-8.71-4.87-7.28-9.73l66.45-225.78c.95-3.23,3.92-5.45,7.28-5.45ZM1440.28,872.31c4.93,0,8.56-4.63,7.37-9.42l-16.24-65.28h-.34l-16.54,65.24c-1.22,4.8,2.41,9.46,7.36,9.46h18.4Z"/>
  </g>
  <path class="cls-2" d="M1748.33,724.22l46.65,62.93c1.73,2.33,3.79,4.39,6.12,6.12l62.93,46.65c6.27,4.65,6.27,14.04,0,18.69l-62.93,46.65c-2.33,1.73-4.39,3.79-6.12,6.12l-46.65,62.93c-4.65,6.27-14.04,6.27-18.69,0l-46.65-62.93c-1.73-2.33-3.79-4.39-6.12-6.12l-62.93-46.65c-6.27-4.65-6.27-14.04,0-18.69l62.93-46.65c2.33-1.73,4.39-3.79,6.12-6.12l46.65-62.93c4.65-6.27,14.04-6.27,18.69,0Z"/>
  <g>
    <path class="cls-1" d="M130.91,1273.09v-55.2c0-6.24,6.13-10.65,12.08-8.77,17.15,5.4,30.07,8.1,38.75,8.1,9.68,0,14.52-3.68,14.52-11.07,0-3.22-1.73-6.33-5.18-9.33-3.46-2.99-8.89-6.8-16.25-11.41-10.15-6.91-18.57-13.19-25.25-18.85-6.68-5.64-12.51-12.85-17.45-21.61-4.97-8.76-7.44-19.02-7.44-30.77,0-26.51,8.3-46.68,24.9-60.51,16.6-13.83,39.19-20.75,67.78-20.75,12.32,0,24.18,1.53,35.54,4.59,3.97,1.07,6.64,4.8,6.64,8.91v49.78c0,6.62-6.8,11.14-12.86,8.47-3.23-1.43-6.44-2.64-9.62-3.63-7.38-2.3-13.82-3.46-19.36-3.46-4.84,0-8.64.93-11.41,2.77-2.76,1.85-4.14,4.61-4.14,8.3,0,3,1.61,6.11,4.84,9.34,3.22,3.23,8.42,7.49,15.56,12.8,10.14,7.61,18.61,14.64,25.42,21.09,6.79,6.46,12.8,14.58,17.98,24.38,5.18,9.8,7.78,20.92,7.78,33.37,0,26.06-8.25,45.47-24.72,58.27-16.49,12.8-38.9,19.19-67.26,19.19-13.94,0-28.46-1.63-43.59-4.9-4.23-.91-7.24-4.75-7.24-9.08Z"/>
    <path class="cls-1" d="M439.35,1038.79h89.53c4.11,0,7.73,2.72,8.88,6.67l64.84,223.56c1.71,5.91-2.72,11.82-8.88,11.82h-59.98c-4.26,0-7.96-2.91-8.98-7.04l-5.53-22.57c-1.01-4.13-4.72-7.04-8.98-7.04h-53.34c-4.23,0-7.91,2.87-8.96,6.96l-5.79,22.73c-1.04,4.1-4.73,6.96-8.96,6.96h-59.64c-6.17,0-10.61-5.93-8.87-11.85l65.8-223.56c1.16-3.93,4.77-6.63,8.87-6.63ZM490.8,1185.05c6.01,0,10.42-5.64,8.97-11.48l-15.82-63.56h-.34l-16.1,63.52c-1.48,5.84,2.93,11.51,8.96,11.51h14.33Z"/>
    <path class="cls-1" d="M714.16,1038.79h55.84c3.18,0,6.14,1.63,7.83,4.33l47.87,76.19c3.63,5.78,12.05,5.77,15.67-.02l47.56-76.15c1.69-2.7,4.65-4.35,7.84-4.35h55.48c5.11,0,9.24,4.14,9.24,9.24v223.56c0,5.11-4.14,9.24-9.24,9.24h-53.44c-5.11,0-9.24-4.14-9.24-9.24v-82.22c0-9.15-11.87-12.74-16.94-5.12l-24.92,37.48c-1.71,2.58-4.6,4.13-7.7,4.13h-13.91c-3.11,0-6.02-1.57-7.73-4.17l-24.56-37.4c-5.04-7.67-16.97-4.11-16.97,5.07v82.24c0,5.11-4.14,9.24-9.24,9.24h-53.43c-5.11,0-9.24-4.14-9.24-9.24v-223.56c0-5.11,4.14-9.24,9.24-9.24Z"/>
    <path class="cls-1" d="M1138.52,1038.79h89.53c4.11,0,7.73,2.72,8.88,6.67l64.84,223.56c1.71,5.91-2.72,11.82-8.88,11.82h-59.98c-4.26,0-7.96-2.91-8.98-7.04l-5.53-22.57c-1.01-4.13-4.72-7.04-8.98-7.04h-53.34c-4.23,0-7.91,2.87-8.96,6.96l-5.79,22.73c-1.04,4.1-4.73,6.96-8.96,6.96h-59.64c-6.17,0-10.61-5.93-8.87-11.85l65.8-223.56c1.16-3.93,4.77-6.63,8.87-6.63ZM1189.97,1185.05c6.01,0,10.42-5.64,8.97-11.48l-15.82-63.56h-.34l-16.1,63.52c-1.48,5.84,2.93,11.51,8.96,11.51h14.33Z"/>
    <path class="cls-1" d="M1440.51,1045.6l32.07,117.66c2.48,9.09,15.38,9.08,17.84-.02l31.8-117.62c1.09-4.03,4.75-6.83,8.92-6.83h60.22c6.24,0,10.68,6.05,8.82,12l-69.95,223.56c-1.21,3.86-4.78,6.48-8.82,6.48h-82.22c-4.03,0-7.59-2.61-8.81-6.45l-70.9-223.56c-1.89-5.96,2.56-12.04,8.81-12.04h63.3c4.17,0,7.82,2.79,8.92,6.81Z"/>
    <path class="cls-1" d="M1712.43,1038.79h56.89c5.11,0,9.24,4.14,9.24,9.24v223.56c0,5.11-4.14,9.24-9.24,9.24h-56.89c-5.11,0-9.24-4.14-9.24-9.24v-223.56c0-5.11,4.14-9.24,9.24-9.24Z"/>
  </g>
</svg>